{"accessors" : [{"bufferView" : 0, "byteOffset" : 0, "componentType" : 5123, "count" : 10848, "type" : "SCALAR", "max" : [10847], "min" : [0]}, {"bufferView" : 1, "byteOffset" : 0, "componentType" : 5126, "count" : 10848, "type" : "VEC3", "max" : [3.277648448944092, 3.277646064758301, 0.7594912648200989], "min" : [-3.277647018432617, -3.2776474952697754, -0.9134584665298462], "name" : "POSITION"}, {"bufferView" : 1, "byteOffset" : 12, "componentType" : 5126, "count" : 10848, "type" : "VEC3", "max" : [1.0000044107437134, 1.0000044107437134, 1.0000044107437134], "min" : [-1.0000044107437134, -1.0000044107437134, -1.0000044107437134], "name" : "NORMAL"}, {"bufferView" : 1, "byteOffset" : 24, "componentType" : 5126, "count" : 10848, "type" : "VEC2", "max" : [1.0000007152557373, 1], "min" : [-6.498171387647744E-07, 0], "name" : "TEXCOORD_0"}, {"bufferView" : 0, "byteOffset" : 21696, "componentType" : 5123, "count" : 1056, "type" : "SCALAR", "max" : [1055], "min" : [0]}, {"bufferView" : 2, "byteOffset" : 0, "componentType" : 5126, "count" : 1056, "type" : "VEC3", "max" : [2.8725180625915527, 2.872519016265869, 0.7125666737556458], "min" : [-2.8725178241729736, -2.8725178241729736, -0.7067756056785583], "name" : "POSITION"}, {"bufferView" : 2, "byteOffset" : 12, "componentType" : 5126, "count" : 1056, "type" : "VEC3", "max" : [0.9904426336288452, 0.9904431700706482, 0.9885740280151367], "min" : [-0.9904429912567139, -0.9904428720474243, -0.9828784465789795], "name" : "NORMAL"}, {"bufferView" : 2, "byteOffset" : 24, "componentType" : 5126, "count" : 1056, "type" : "VEC2", "max" : [1.0000007152557373, 0.9324595332145691], "min" : [-6.498171387647744E-07, 0.18749988079071045], "name" : "TEXCOORD_0"}, {"bufferView" : 0, "byteOffset" : 23808, "componentType" : 5123, "count" : 1248, "type" : "SCALAR", "max" : [1247], "min" : [0]}, {"bufferView" : 3, "byteOffset" : 0, "componentType" : 5126, "count" : 1248, "type" : "VEC3", "max" : [0.9807851314544678, 0.9807852506637573, 1.55818510055542], "min" : [-0.9807847738265991, -0.9807849526405334, 0.753275454044342], "name" : "POSITION"}, {"bufferView" : 3, "byteOffset" : 12, "componentType" : 5126, "count" : 1248, "type" : "VEC3", "max" : [0.9569445252418518, 0.9569445848464966, 1.0000044107437134], "min" : [-0.9569447040557861, -0.9569447040557861, 0.2902851402759552], "name" : "NORMAL"}, {"bufferView" : 3, "byteOffset" : 24, "componentType" : 5126, "count" : 1248, "type" : "VEC2", "max" : [1.0000001192092896, 0.4375], "min" : [0, 0], "name" : "TEXCOORD_0"}], "asset" : {"generator" : "Aspose.3D 24.6.0", "version" : "2.0"}, "buffers" : [{"uri" : "buffer.bin", "byteLength" : 447184}], "bufferViews" : [{"buffer" : 0, "byteOffset" : 0, "byteLength" : 26304, "target" : 34963}, {"buffer" : 0, "byteOffset" : 26308, "byteLength" : 347136, "byteStride" : 32, "target" : 34962}, {"buffer" : 0, "byteOffset" : 373448, "byteLength" : 33792, "byteStride" : 32, "target" : 34962}, {"buffer" : 0, "byteOffset" : 407244, "byteLength" : 39936, "byteStride" : 32, "target" : 34962}], "cameras" : [{"perspective" : {"aspectRatio" : 1.5, "yfov" : 0.6911112070083618, "zfar" : 10000, "znear" : 10.000000149011612}, "type" : "perspective", "name" : "Camera"}], "materials" : [{"name" : "Metal", "pbrMetallicRoughness" : {"baseColorFactor" : [0.1742565780878067, 0.1742565780878067, 0.1742565780878067, 1], "metallicFactor" : 1, "roughnessFactor" : 1}, "emissiveFactor" : [0, 0, 0], "alphaMode" : "OPAQUE", "doubleSided" : false}, {"name" : "Light", "pbrMetallicRoughness" : {"baseColorFactor" : [0.800000011920929, 0.800000011920929, 0.800000011920929, 1], "metallicFactor" : 1, "roughnessFactor" : 1}, "emissiveFactor" : [0, 0, 0], "alphaMode" : "OPAQUE", "doubleSided" : false}, {"name" : "Material.001", "pbrMetallicRoughness" : {"baseColorFactor" : [0.44078513979911804, 0.44078513979911804, 0.44078513979911804, 0.9615384340286255], "metallicFactor" : 1, "roughnessFactor" : 1}, "emissiveFactor" : [0, 0, 0], "alphaMode" : "BLEND", "doubleSided" : false}], "meshes" : [{"primitives" : [{"attributes" : {"POSITION" : 1, "NORMAL" : 2, "TEXCOORD_0" : 3}, "indices" : 0, "material" : 0, "mode" : 4}, {"attributes" : {"POSITION" : 5, "NORMAL" : 6, "TEXCOORD_0" : 7}, "indices" : 4, "material" : 1, "mode" : 4}, {"attributes" : {"POSITION" : 9, "NORMAL" : 10, "TEXCOORD_0" : 11}, "indices" : 8, "material" : 2, "mode" : 4}], "name" : "Sphere"}], "nodes" : [{"camera" : 0, "matrix" : [-31.30593512128178, -28.97088612989438, -90.44681411211116, 0, -9.47605335675339, 95.71148184436427, -27.377301838126694, 0, 94.49943300868033, 6.801334577200002E-05, -32.708671037407115, 0, 432.6226806640625, 397.3191223144531, 1236.2337646484375, 1], "name" : "Camera"}, {"matrix" : [100, 0, 0, 0, 0, -1.6292067955264296E-05, -99.99999999999866, 0, 0, 99.99999999999866, -1.6292067955264296E-05, 0, 0, 0, 0, 1], "mesh" : 0, "name" : "Sphere"}], "scene" : 0, "scenes" : [{"nodes" : [0, 1]}]}